<?xml version="1.0" encoding="UTF-8" standalone="no"?>
<!-- Created with Inkscape (http://www.inkscape.org/) -->

<svg
   width="27.90663mm"
   height="32.058937mm"
   viewBox="0 0 27.90663 32.058938"
   version="1.1"
   id="svg323"
   sodipodi:docname="paper.svg"
   inkscape:version="1.2.2 (b0a8486541, 2022-12-01)"
   xmlns:inkscape="http://www.inkscape.org/namespaces/inkscape"
   xmlns:sodipodi="http://sodipodi.sourceforge.net/DTD/sodipodi-0.dtd"
   xmlns="http://www.w3.org/2000/svg"
   xmlns:svg="http://www.w3.org/2000/svg">
  <sodipodi:namedview
     id="namedview325"
     pagecolor="#505050"
     bordercolor="#ffffff"
     borderopacity="1"
     inkscape:showpageshadow="0"
     inkscape:pageopacity="0"
     inkscape:pagecheckerboard="1"
     inkscape:deskcolor="#505050"
     inkscape:document-units="mm"
     showgrid="false"
     inkscape:zoom="0.73762626"
     inkscape:cx="10.167751"
     inkscape:cy="56.261554"
     inkscape:window-width="1920"
     inkscape:window-height="1006"
     inkscape:window-x="0"
     inkscape:window-y="42"
     inkscape:window-maximized="1"
     inkscape:current-layer="layer1" />
  <defs
     id="defs320" />
  <g
     inkscape:label="Layer 1"
     inkscape:groupmode="layer"
     id="layer1"
     transform="translate(-7.2096872,0.24686751)">
    <path
       d="m 23.28019,12.677229 c 0.63306,0.159103 1.262133,0.375003 1.883093,0.657578 0.753639,0.341489 1.369765,0.775053 1.863796,1.307042 -0.723618,-1.189567 -2.26427,-1.732492 -3.746889,-1.96462"
       style="fill:#ffffff;fill-opacity:1;fill-rule:nonzero;stroke:none;stroke-width:0.0352778"
       id="path79" />
    <path
       d="m 34.159646,10.278693 c -1.012825,2.340681 -4.610912,3.729214 -5.497513,6.163381 -0.05652,-0.191558 -0.122661,-0.377472 -0.193781,-0.560211 0.529167,2.822222 0.273015,6.307314 -1.493097,8.4709 -0.393276,0.482953 -0.906603,0.942623 -1.457819,1.364192 0.05496,0.284692 0.04946,0.557389 -0.03376,0.813859 0.01228,0.03034 0.01707,0.06668 -8.47e-4,0.115711 -0.473357,1.260122 -2.428628,2.095853 -3.615972,2.468739 -0.948091,0.297744 -1.898933,0.431447 -2.892496,0.441678 -0.634436,0.0067 -1.295365,0.06209 -1.876884,-0.232834 -0.04188,-0.02152 -0.05496,-0.05856 -0.05168,-0.09878 -5.29e-4,-7.05e-4 -0.0014,-7.05e-4 -0.0019,-7.05e-4 0.0019,-0.305153 -0.02014,-0.620536 -0.139876,-0.896409 -0.0062,-0.07091 -0.01531,-0.1397 -0.02907,-0.208491 0.170321,0.02046 0.345334,0.04128 0.519642,0.06244 -0.192229,-0.07902 -0.378954,-0.177094 -0.573264,-0.265994 -0.453496,-0.207081 -0.93913,-0.292806 -1.407125,-0.458611 -0.898455,-0.31997 -1.620415,-0.851606 -2.189551,-1.621367 C 11.954788,24.119224 11.679868,21.99903 10.642208,20.177285 10.343017,19.792052 9.9785269,19.464321 9.5880018,19.139766 8.825261,18.503707 6.1422129,16.715477 8.2747265,15.521677 c 2.0588005,-1.151467 3.3822465,1.1176 4.6789875,2.189692 0.009,0.0067 0.01944,0.01023 0.02893,0.01446 0.300425,0.37077 0.658706,0.642762 1.055581,0.845962 0.637505,0.187325 1.350645,0.217663 1.920452,0.172155 1.035438,-0.08396 1.911879,-0.03634 2.818095,0.165453 -1.416756,-0.431095 -2.916626,-0.273403 -4.254006,-0.696383 0.198966,-0.272345 0.236325,-0.703087 0.310585,-0.994481 0.106962,-0.414867 0.136596,-0.835025 0.159173,-1.242836 -0.04893,-0.397581 -0.103363,-0.795161 -0.144003,-1.194153 -0.02261,-0.150989 -0.03912,-0.303742 -0.05084,-0.455436 -0.01393,0.03845 -0.03048,0.07726 -0.04134,0.117122 -0.06615,-1.74872 -0.09507,-3.498145 -0.198438,-5.2447476 -0.106821,-1.7839973 -0.698817,-3.5147252 -0.401849,-5.3124808 0.08061,-0.4864806 0.302472,-0.9218084 0.557565,-1.3380862 0.992752,-1.61713347 2.149581,-0.051506 2.433462,0.8311445 0.383257,1.1934473 0.248743,2.687814 0.227541,3.9320613 -0.03101,1.7032112 -0.354153,3.5182528 0.310057,5.1332698 -0.467854,0.126647 -0.943963,0.271639 -1.384406,0.474839 -0.0212,0.02258 -0.03789,0.04868 -0.05909,0.07232 1.573037,-0.78493 3.573252,-0.848077 5.255684,-0.787752 1.781105,0.06562 4.369753,0.371475 5.574313,1.912055 -0.0229,-0.07514 -0.04216,-0.14993 -0.06974,-0.225778 -0.01224,-0.03246 -0.0054,-0.06632 0.0098,-0.09666 -0.02551,-0.02117 -0.05115,-0.0448 -0.07733,-0.06668 0.09317,-0.04904 0.184115,-0.128764 0.299191,-0.236361 0.730356,-0.682978 1.398023,-1.422047 2.112539,-2.122311 0.724147,-0.708731 1.471577,-1.3888863 2.252239,-2.0337641 0.487821,-0.403225 0.964777,-0.7944556 1.518074,-1.1073695 1.42748,-0.8046862 1.420742,1.1811001 1.043693,2.0517556 z M 18.49289,11.865488 c 0.291465,-0.952148 0.460269,-1.9600338 0.611857,-2.9432256 0.354154,-2.3043446 0.56568,-4.6048086 1.098974,-6.8805782 0.220486,-0.9390945 0.865258,-2.13677512 2.029848,-1.71520565 1.076255,0.3894667 0.97222,1.85031955 0.871608,2.73014735 -0.137795,1.2001501 -0.39564,2.3900696 -0.603567,3.5792836 -0.319864,1.843264 -0.741398,3.4706285 -0.283352,5.2779085 -1.357206,-0.102658 -2.741577,0.05045 -4.002511,0.38735 0.127635,-0.106891 0.217735,-0.242711 0.277143,-0.43568 z m 6.548438,-4.9194868 c 0.307833,-1.1811001 0.81855,-2.2076835 1.519978,-3.2053391 0.705556,-1.0040056 2.352993,-2.0312946 2.977092,-0.2705806 0.297815,0.8396112 -0.184503,2.2041557 -0.469089,2.9957891 -0.815798,2.2620113 -2.696104,4.2802534 -2.800844,6.7528724 -0.944633,-0.623358 -2.020888,-1.005769 -3.140534,-1.1938 0.901912,-0.995186 1.781634,-4.5723529 1.913397,-5.0789418 z m 10.013386,1.2858751 c -0.386539,-1.7653001 -2.811075,-0.041981 -3.401554,0.4568472 -0.984603,0.833614 -1.916325,1.7134415 -2.815344,2.6387775 -0.13917,0.141817 -1.7647,1.92652 -2.209835,2.073981 0.0084,-0.02222 0.01394,-0.0441 0.01531,-0.06879 0.0908,-1.674283 1.074878,-3.089627 1.84658,-4.5250804 0.646147,-1.1987389 1.221634,-2.3812501 1.486746,-3.724628 C 30.12475,4.3347399 30.310946,3.1363537 29.668784,2.5426287 29.087089,2.0049953 27.868383,1.6088259 27.205408,2.2826315 25.85628,3.6538788 25.088176,5.5327733 24.607093,7.3636901 24.474802,7.8685151 23.687966,11.23719 22.914854,11.99531 c -0.129399,-0.0194 -0.257528,-0.04092 -0.389291,-0.05468 -0.701957,-2.6705277 0.465244,-5.7647417 0.921914,-8.4377391 0.206164,-1.2089696 0.275061,-3.87138361 -1.658479,-3.74544194 -1.893393,0.12135557 -2.039337,2.80564184 -2.299793,4.21216694 -0.245287,1.3267973 -0.386539,2.6754668 -0.543631,4.013553 -0.08957,0.7591779 -0.206022,1.513064 -0.34604,2.2641281 -0.09768,0.524933 -0.197061,1.718381 -0.678003,2.061281 C 17.289706,10.88159 17.510192,9.2267097 17.582547,7.7065901 17.643859,6.4051928 17.762534,4.9521011 17.536403,3.6655204 17.30364,2.3387231 15.986086,0.27285633 14.560652,1.9411425 13.265993,3.4549121 13.488384,5.4812678 13.77932,7.3111262 c 0.432011,2.7149778 0.505036,5.4715838 0.824618,8.2034948 -0.0164,0.30727 -0.03295,0.616656 -0.04741,0.923925 0.0076,-0.161219 -0.288854,1.559278 -0.307304,1.538817 -0.0041,-0.0028 -0.0077,-0.0042 -0.01256,-0.0078 l -0.0028,0.03951 c -0.0033,0.05715 -0.05443,0.105128 -0.109396,0.109361 -0.03101,0.0187 -0.06699,0.02681 -0.09179,-0.0028 -0.04135,-0.04868 -0.07994,-0.09984 -0.116981,-0.151342 -0.269558,-0.131586 -0.530014,-0.293511 -0.777911,-0.504472 -0.955816,-1.467556 -2.426194,-2.759428 -4.2636368,-2.507545 -1.9238949,0.263878 -2.0692781,2.016831 -1.0019877,3.269545 0.9358419,1.098197 2.1841815,1.713442 2.8442635,3.058584 0.589951,1.205089 0.871609,2.509308 1.531162,3.691114 0.522111,0.934155 1.253314,1.740253 2.130284,2.348089 0.365337,0.252941 0.742915,0.415572 1.130018,0.532694 0.420405,0.0049 0.868821,0.124531 0.9894,0.542925 0.05031,0.174272 -0.07648,0.385939 -0.183938,0.506236 -0.482177,0.538339 -0.976207,1.217789 -0.252765,1.825273 0.530578,0.446616 1.122997,0.760236 1.75013,0.976489 0.899866,0.161219 1.850708,0.125236 2.807759,0.0095 1.799555,-0.215548 4.21319,-0.487892 5.433448,-1.854906 0.798725,-0.894997 1.51377,-3.207103 0.250967,-4.162778 0.844726,-0.745067 1.533595,-1.698625 1.99524,-2.816225 0.646289,-1.5621 0.912248,-3.745442 0.548605,-5.669845 0.03154,-0.199672 0.07426,-0.398286 0.142628,-0.596195 0.268041,-0.776463 0.931404,-1.368072 1.513064,-1.912408 0.79375,-0.742244 1.728082,-1.336322 2.53492,-2.067983 1.137426,-1.033287 2.370914,-2.7876506 2.017325,-4.4005507"
       style="fill:#ffffff;fill-opacity:1;fill-rule:nonzero;stroke:none;stroke-width:0.0352778"
       id="path81" />
    <path
       d="m 28.243209,7.5263207 c 0.496782,-0.919339 1.066589,-2.3565557 1.074703,-3.6353753 -0.05771,-0.4201583 -0.181046,-0.8371417 -0.391196,-1.2505973 -0.7614,-0.428625 -1.832116,0.3411362 -2.36541,1.100314 -0.701428,0.9976556 -1.212145,2.024239 -1.519978,3.2053391 -0.131763,0.5065889 -1.011485,4.0837558 -1.913397,5.0789418 1.034768,0.174272 2.029848,0.517172 2.921283,1.060097 0.122802,-2.017183 1.255536,-3.8230525 2.193995,-5.5587193"
       style="fill:#ffffff;fill-opacity:1;fill-rule:nonzero;stroke:none;stroke-width:0.0352778"
       id="path83" />
    <path
       d="M 26.718398,11.22696 C 26.979383,10.548921 27.325423,9.894518 27.685785,9.2447013 27.869759,8.8855735 28.054403,8.526093 28.231462,8.165554 27.691289,9.1755569 27.098057,10.162276 26.718398,11.22696"
       style="fill:#ffffff;fill-opacity:1;fill-rule:nonzero;stroke:none;stroke-width:0.0352778"
       id="path85" />
    <path
       d="m 22.691616,4.6825788 c 0.217734,-1.22555 0.85852,-4.00931967 -0.863177,-4.40548914 -0.02635,-0.00635 -0.04357,-0.0194028 -0.05666,-0.0345722 -0.875065,-0.001411 -1.37788,0.99236394 -1.568062,1.79916674 -0.533294,2.2757696 -0.74482,4.5762336 -1.098974,6.8805782 -0.151588,0.9831918 -0.320392,1.9910776 -0.611857,2.9432256 -0.05941,0.192969 -0.149508,0.328789 -0.277143,0.43568 1.203184,-0.321733 2.518516,-0.472722 3.816633,-0.396875 -0.78479,-2.282825 0.25908,-4.9671113 0.659236,-7.2217142"
       style="fill:#ffffff;fill-opacity:1;fill-rule:nonzero;stroke:none;stroke-width:0.0352778"
       id="path87" />
    <path
       d="m 11.578586,16.369049 c -0.363114,-0.349956 -0.74415,-0.6731 -1.156335,-0.889353 0.390137,0.236361 0.773924,0.55245 1.156335,0.889353"
       style="fill:#ffffff;fill-opacity:1;fill-rule:nonzero;stroke:none;stroke-width:0.0352778"
       id="path89" />
    <path
       d="m 17.374619,7.3111262 c 0.006,-0.358775 0.02067,-0.739775 0.03097,-1.1271251 -0.07507,1.0315223 -0.132292,2.0655141 -0.142593,3.0998586 -0.0035,0.3086805 -0.0043,0.6282972 0.0103,0.9482663 -0.02547,-0.9722552 0.08393,-1.9639136 0.101318,-2.9209998"
       style="fill:#ffffff;fill-opacity:1;fill-rule:nonzero;stroke:none;stroke-width:0.0352778"
       id="path91" />
    <path
       d="M 33.962619,8.1034652 C 33.766228,7.9993957 33.492155,8.0145651 33.115953,8.2269374 32.562656,8.5398513 32.0857,8.9310819 31.597879,9.3343069 30.817217,9.9791847 30.069787,10.65934 29.34564,11.368071 c -0.714516,0.700264 -1.382183,1.439333 -2.112539,2.122311 -0.115076,0.107597 -0.206022,0.187325 -0.299191,0.236361 0.02618,0.02187 0.05182,0.04551 0.07733,0.06668 -0.01517,0.03034 -0.02205,0.06421 -0.0098,0.09666 0.05253,0.141817 0.09373,0.282928 0.130915,0.422275 0.01873,0.168275 0.04011,0.336198 0.06078,0.503767 -0.517454,-0.616655 -1.192848,-1.101725 -2.029848,-1.481314 -2.870447,-1.303867 -5.902819,-1.284464 -8.799619,0.0011 -0.245286,0.109714 -0.442348,0.23495 -0.603426,0.372887 0.134231,-0.288573 0.313513,-0.553156 0.540032,-0.789517 0.395499,-0.182739 0.820631,-0.317147 1.242307,-0.434975 C 15.625727,9.4306612 18.946107,4.1809748 15.740133,1.8554635 15.406088,1.8226555 15.050558,1.9997497 14.71362,2.5479664 14.458527,2.9642442 14.236665,3.399572 14.156055,3.8860526 c -0.296968,1.7977556 0.295028,3.5284835 0.401849,5.3124808 0.103364,1.7466026 0.132292,3.4960276 0.198438,5.2447476 0.01087,-0.03986 0.02741,-0.07867 0.04134,-0.117122 0.01171,0.151694 0.02822,0.304447 0.05084,0.455436 0.04064,0.398992 0.09507,0.796572 0.144003,1.194153 -0.02258,0.407811 -0.05221,0.827969 -0.159173,1.242836 -0.07426,0.291394 -0.111619,0.722136 -0.310585,0.994481 1.444025,0.456847 3.079221,0.227188 4.592849,0.80398 2.153179,0.817739 3.211513,2.580217 4.068657,4.636559 0.04216,0.102658 -0.08682,0.256116 -0.167287,0.136878 -0.709154,-1.061156 -1.256066,-2.317045 -2.232414,-3.17359 -1.07763,-0.945444 -2.376558,-1.300691 -3.781495,-1.4097 -0.974796,-0.07444 -1.964232,-0.179211 -2.80155,-0.559505 -2.190926,-0.621595 -4.2235263,-4.985809 -6.5972129,-2.512131 -0.00634,0.0067 -0.011712,0.0081 -0.017914,0.01376 -0.6132266,1.121834 1.3634297,2.458509 2.0016047,2.990498 0.061172,0.0508 0.1219553,0.102658 0.1817512,0.153458 1.411958,0.569031 2.001061,2.596798 2.497032,3.85445 0.835907,2.118078 2.000885,4.005087 4.376773,4.552951 0.06823,0.01588 0.08876,0.06844 0.08047,0.126294 0.334857,0.10407 0.680897,0.170745 1.02542,0.247297 0.02258,0.05786 -0.02826,0.148873 -0.09578,0.1397 -0.264055,-0.03351 -0.523664,-0.06315 -0.778722,-0.09419 0.01376,0.06879 0.02286,0.137583 0.02907,0.208491 0.119732,0.275873 0.141781,0.591256 0.139876,0.896409 0.09507,0.04304 0.207363,0.07126 0.340219,0.08079 0.607025,0.04339 1.172704,0.05927 1.783327,0.02152 1.238709,-0.07938 2.634121,-0.28328 3.74329,-0.856544 0.695219,-0.360539 2.655641,-1.167342 2.579159,-2.156531 -1.323764,0.866775 -2.92213,1.286934 -4.619873,1.114072 -0.05253,-0.0049 -0.08354,-0.03316 -0.102799,-0.06844 -0.116311,-0.06526 0.02409,-0.190853 0.868821,-0.333375 5.082364,-0.860425 7.013681,-5.111045 6.84075,-9.431868 -0.02014,-0.329494 -0.04688,-0.658636 -0.07098,-0.989541 -0.04011,-0.545042 -0.217029,-1.063978 -0.354154,-1.589617 0.209303,0.352778 0.380189,0.738011 0.517984,1.143705 0.105586,-1.095375 1.284499,-1.985786 2.054825,-2.629253 0.923113,-0.770819 1.99263,-1.462616 2.752619,-2.408061 0.775688,-0.965905 0.888153,-1.922286 0.58554,-3.0180138"
       style="fill:#ffffff;fill-opacity:1;fill-rule:nonzero;stroke:none;stroke-width:0.0352778"
       id="path93" />
  </g>
</svg>
