<?xml version="1.0" encoding="UTF-8" standalone="no"?>
<!-- Created with Inkscape (http://www.inkscape.org/) -->

<svg
   width="40mm"
   height="40mm"
   viewBox="0 0 40 40"
   version="1.1"
   id="svg323"
   inkscape:version="1.2.2 (b0a8486541, 2022-12-01)"
   sodipodi:docname="rock.svg"
   xmlns:inkscape="http://www.inkscape.org/namespaces/inkscape"
   xmlns:sodipodi="http://sodipodi.sourceforge.net/DTD/sodipodi-0.dtd"
   xmlns="http://www.w3.org/2000/svg"
   xmlns:svg="http://www.w3.org/2000/svg">
  <sodipodi:namedview
     id="namedview325"
     pagecolor="#505050"
     bordercolor="#ffffff"
     borderopacity="1"
     inkscape:showpageshadow="0"
     inkscape:pageopacity="0"
     inkscape:pagecheckerboard="1"
     inkscape:deskcolor="#505050"
     inkscape:document-units="mm"
     showgrid="false"
     inkscape:zoom="0.73762626"
     inkscape:cx="37.281753"
     inkscape:cy="54.228004"
     inkscape:window-width="1920"
     inkscape:window-height="1006"
     inkscape:window-x="0"
     inkscape:window-y="42"
     inkscape:window-maximized="1"
     inkscape:current-layer="layer1" />
  <defs
     id="defs320" />
  <g
     inkscape:label="Layer 1"
     inkscape:groupmode="layer"
     id="layer1"
     transform="matrix(1.4597873,0,0,1.4597873,-5.2015824,-8.9056415)">
    <path
       d="m 27.106256,19.542998 c -0.517525,1.576564 -1.10102,3.094214 -2.074686,4.450292 -0.535517,0.744008 -1.252714,1.264356 -2.035881,1.683103 -0.210961,0.153106 -0.424744,0.299156 -0.648406,0.440619 -0.402519,0.254 -0.589844,0.519289 -0.766938,0.88512 -0.02822,0.155222 -0.04904,0.346781 -0.0448,0.535517 0.04974,0.03493 0.07444,0.113594 0.02328,0.198261 -0.0025,0.0035 -0.0053,0.0078 -0.0074,0.01129 7.05e-4,0.0067 7.05e-4,0.01446 0.0021,0.02187 -0.01235,0.0095 -0.02434,0.0187 -0.03669,0.02822 -1.096081,1.734256 -3.503437,2.319161 -5.437012,2.422525 -1.126419,0.05997 -2.271536,-0.04269 -3.382433,-0.251178 -0.691092,-0.129822 -1.613606,-0.29845 -1.971323,-0.986719 -0.03704,-0.07232 0.0092,-0.166864 0.07161,-0.219781 -0.006,-0.136525 -0.02117,-0.273755 -0.04516,-0.409575 0.08855,0.06703 0.178152,0.134409 0.269169,0.202142 0.02152,0.01658 0.0448,0.02117 0.06773,0.02258 -0.144991,-0.244475 -0.277989,-0.496711 -0.432152,-0.730956 -0.0049,-0.0035 -0.0095,-0.0071 -0.01376,-0.01094 -0.0014,-0.0042 -0.0021,-0.0092 -0.0035,-0.01376 -0.01517,-0.02434 -0.03104,-0.04833 -0.04833,-0.07197 -0.01905,-0.01094 -0.04269,-0.01446 -0.06809,-0.01164 -0.8509003,-0.696383 -1.6548809,-1.401233 -2.2150921,-2.39783 -0.9793111,-1.74237 -1.1885084,-3.656542 -1.3610167,-5.604934 -0.1344084,-1.529645 -0.4960056,-3.25367 -0.1651,-4.765322 0.34925,-1.599142 1.5169445,-3.181351 2.2150918,-4.651729 0.4691945,-0.9891885 1.013531,-1.5303497 2.132542,-0.8508996 0.03916,0.023636 0.07444,0.053269 0.112889,0.077258 0.541514,0.013053 1.110897,0.2610556 1.6256,0.6064256 -0.270228,-0.2674061 -0.563034,-0.5175256 -0.874536,-0.7464784 0.478719,0.00353 0.937683,-0.2229555 1.403702,-0.4945944 0.622653,-0.363714 1.117601,-0.7821084 1.889831,-0.7806973 0.372886,7.055e-4 0.715786,0.1647472 1.023056,0.4046361 0.552803,0.1488723 1.099255,0.3548945 1.551164,0.6977945 C 17.739653,9.0457419 17.605244,8.8658252 17.450375,8.6957863 18.042336,8.196253 18.560919,7.4748224 19.4284,7.7027168 c 0.12065,0.03175 0.230364,0.086078 0.335492,0.1495778 0.618772,0.05715 1.177572,0.3774723 1.713794,0.7235473 -0.08678,-0.1481667 -0.192264,-0.2949223 -0.318205,-0.4342695 0.264936,-0.098425 0.489655,-0.2367139 0.739069,-0.4099278 0.89782,-0.625475 1.795639,-0.085372 2.552348,0.4974167 0.708025,0.5457473 1.093258,1.1348862 1.103488,2.0485807 0.0049,0.511175 -0.167216,0.964494 -0.146755,1.453797 -0.430389,-0.390525 -0.936978,-0.830791 -1.474964,-1.26365 0.599369,0.842081 1.187097,1.692275 1.818922,2.50825 0.643467,0.534459 1.262239,1.1049 1.737784,1.749778 0.953558,1.293989 0.05856,3.469923 -0.383117,4.817181 z m -17.018001,8.739365 c 0.08961,-0.01799 0.186619,-0.03104 0.294922,-0.03634 0.01835,0.122414 0.04339,0.244475 0.0695,0.367948 -0.126294,-0.102659 -0.246591,-0.214489 -0.364419,-0.331611 z M 26.627537,12.864209 c -0.165453,-0.1524 -0.447323,-0.422275 -0.807862,-0.756356 0.04022,-0.03739 0.06985,-0.08502 0.07655,-0.135114 0.117828,-0.81915 0.531284,-1.700741 0.34537,-2.5410582 -0.198614,-0.898525 -0.810331,-1.4788445 -1.540581,-2.0002501 -0.534106,-0.381 -1.436864,-0.8530167 -2.122311,-0.6685139 -0.700617,0.1880305 -1.10737,0.7164917 -1.679928,1.1197167 -0.441678,-0.3947584 -1.001184,-0.6992056 -1.503892,-0.7874 -0.915106,-0.1605139 -1.541639,0.8128 -2.102203,1.4351 C 17.06373,8.3034974 16.804791,8.0900669 16.501403,7.8949807 15.973647,7.5538446 15.215175,7.4169668 14.617922,7.6490946 c -0.979311,0.3802945 -2.0955,1.7494251 -3.227564,1.2954001 -0.03387,-0.013053 -0.06597,-0.010231 -0.09419,0.00282 C 10.249474,8.358178 9.3985743,8.3765224 8.7681604,9.6754503 7.8040187,11.664059 6.2750797,13.566237 6.0313102,15.816606 c -0.1379361,1.274234 0.2843389,2.747081 0.4416778,4.012848 0.1467556,1.189919 0.2815167,2.339269 0.5863167,3.502378 0.5386917,2.058105 1.5963196,3.33128 3.0896283,4.547658 -1.2259031,0.09137 -1.605492,1.554339 -1.1789837,2.632075 1.5571617,2.208742 4.9346557,2.432051 7.4150367,2.099381 2.248253,-0.301272 5.045075,-0.705555 6.700661,-2.418644 0.890412,-1.333148 0.78352,-2.996495 -0.98178,-3.413831 -0.01305,-0.0035 -0.0247,0 -0.03775,0 0,-0.0035 -7.06e-4,-0.0056 0,-0.0085 1.842205,-0.815622 3.430411,-1.985786 4.331758,-4.038953 0.837142,-1.907117 1.57092,-3.977217 1.95827,-6.024739 0.33408,-1.768122 -0.49142,-2.71145 -1.728611,-3.842103"
       style="fill:#ffffff;fill-opacity:1;fill-rule:nonzero;stroke:none;stroke-width:0.0352778"
       id="path133" />
    <path
       d="m 18.541164,15.860703 c -0.09948,0.320323 -0.45085,1.070681 -0.181328,1.371248 0.370064,0.414866 0.908756,0.288572 1.3843,0.211666 0.715786,-0.116416 1.165225,-0.579613 1.572331,-1.11513 0.186619,-0.358775 0.303741,-0.75565 0.442383,-1.223434 0.01094,-0.03528 0.04128,-0.07091 0.07655,-0.09737 -1.241778,-0.545042 -2.30505,-1.360664 -2.965803,-2.645128 -0.03351,-0.06526 -0.06738,-0.131586 -0.09984,-0.198261 0.02681,0.250119 0.04833,0.504119 0.06562,0.762705 0.05645,0.867481 -0.03175,1.857375 -0.296333,2.799998 0.01446,0.03528 0.01905,0.07726 0.0021,0.133702"
       style="fill:#ffffff;fill-opacity:1;fill-rule:nonzero;stroke:none;stroke-width:0.0352778"
       id="path135" />
    <path
       d="m 20.940758,17.534987 c 0.389467,-0.0889 0.789164,-0.177095 1.163109,-0.289983 -0.308681,-0.688976 0.09737,-1.443567 -0.04692,-2.139245 -0.0032,-0.0014 -0.0081,-0.0042 -0.01235,-0.0064 0.1778,0.877711 -0.341489,1.803047 -1.103842,2.435578"
       style="fill:#ffffff;fill-opacity:1;fill-rule:nonzero;stroke:none;stroke-width:0.0352778"
       id="path137" />
    <path
       d="M 25.049561,11.410412 C 25.368473,9.9682559 24.47277,8.3475946 23.275442,7.543614 22.829531,7.397564 22.36457,7.407089 21.89855,7.7316446 c -0.249414,0.1732139 -0.474133,0.3115028 -0.739069,0.4099278 0.147108,0.1633361 0.273402,0.3351389 0.366536,0.5101167 0.0314,0.059972 0.03775,0.1308806 0.02469,0.1996722 1.198739,0.620889 2.492728,1.6704027 3.49885,2.5590507"
       style="fill:#ffffff;fill-opacity:1;fill-rule:nonzero;stroke:none;stroke-width:0.0352778"
       id="path139" />
    <path
       d="M 18.660755,8.8686475 C 19.055867,8.3271335 19.661939,8.2251807 20.368906,8.3902808 20.100442,8.0844224 19.808694,7.8022002 19.4284,7.7027168 18.560919,7.4748224 18.042336,8.196253 17.450375,8.6957863 c 0.341136,0.3753556 0.59443,0.7888112 0.7874,1.2326057 0.0441,-0.3623028 0.174272,-0.7179029 0.42298,-1.0597445"
       style="fill:#ffffff;fill-opacity:1;fill-rule:nonzero;stroke:none;stroke-width:0.0352778"
       id="path141" />
    <path
       d="m 14.714936,14.622101 c -0.02681,0.566914 -0.132292,1.122186 -0.248003,1.6764 -0.127,0.370416 -0.288219,0.729544 -0.466372,1.080205 -0.04163,0.65652 0.203905,1.167342 1.198033,1.102431 1.440039,-0.09384 2.219325,-1.848556 2.897364,-2.930525 0.0021,-0.0039 0.006,-0.006 0.0081,-0.01023 0.535517,-1.559983 0.257175,-4.238272 -0.631119,-5.618339 -0.455437,-0.7083779 -1.223434,-1.7914057 -2.185459,-1.7928168 -0.77223,-0.00141 -1.267178,0.4169833 -1.889831,0.7806973 -0.466019,0.2716389 -0.924983,0.4981222 -1.403702,0.4945944 1.691569,1.2403671 2.824339,3.0868061 2.720975,5.2175841"
       style="fill:#ffffff;fill-opacity:1;fill-rule:nonzero;stroke:none;stroke-width:0.0352778"
       id="path143" />
    <path
       d="m 21.369383,26.413699 c 0.0702,-0.02822 0.141464,-0.05786 0.211667,-0.08678 0.44697,-0.347133 0.937683,-0.610305 1.433689,-0.89288 0.800806,-0.455437 1.408995,-1.020587 1.898297,-1.80587 0.77717,-1.249186 1.39312,-2.676878 1.879601,-4.066117 0.502355,-1.432983 1.00965,-3.309761 0.16898,-4.722284 -0.605719,-1.018469 -1.574447,-1.752247 -2.2606,-2.706511 -0.134408,-0.106186 -0.267406,-0.211666 -0.397581,-0.316441 -1.143352,-0.920398 -2.216855,-2.0806839 -3.625144,-2.5890367 -0.677334,-0.2448278 -2.435578,-0.7697612 -1.877484,1.3525497 0.07867,0.365831 0.2032,0.715786 0.375356,1.049867 0.213783,0.39617 0.4445,0.815975 0.733778,1.175456 0.220133,0.317147 0.468136,0.616655 0.739422,0.902758 0.612069,0.645583 1.400175,1.06927 2.073981,1.630892 -0.1397,-0.04551 -0.281164,-0.08749 -0.416984,-0.138642 0.05856,0.237772 0.07514,0.479778 0.07197,0.738011 -0.0028,0.263878 0.0095,0.500239 0.07444,0.758473 0.04128,0.164747 0.07303,0.277283 0.05644,0.412044 0.26917,-0.102658 0.513292,-0.227189 0.717198,-0.381 -0.143228,0.257175 -0.340431,0.479778 -0.565856,0.675922 -0.34925,0.182739 -0.731661,0.310092 -1.103136,0.451556 -0.978253,0.370417 -1.940983,0.767997 -2.855736,1.279525 -1.07562,0.600075 -2.209095,1.297164 -2.773539,2.43205 -0.245886,0.311503 -0.462139,0.649817 -0.636412,1.020586 -0.153105,0.321734 -0.240594,0.65652 -0.2921,0.999773 -0.04763,0.236361 -0.07867,0.473075 -0.09807,0.701322 -0.03916,0.467078 -0.05503,0.962378 -0.02893,1.457325 -0.01975,-0.01305 -0.03492,-0.03387 -0.04339,-0.06562 -0.542925,-2.014714 0.103364,-4.675717 1.783997,-5.989461 0.663575,-0.520347 1.395942,-0.997656 2.160764,-1.388534 -0.427214,-0.05433 -0.815269,-0.262466 -1.107369,-0.662164 -0.285045,0.411339 -0.626181,0.775759 -1.030112,1.062567 -0.136525,0.09701 -0.279047,0.183797 -0.427213,0.261056 -0.03563,0.05927 -0.08678,0.109008 -0.143228,0.124883 -0.128059,0.03422 -0.257175,0.06385 -0.386645,0.09349 -0.166511,0.05186 -0.332669,0.08678 -0.498828,0.106186 -0.01305,-0.0081 -0.02893,-0.01164 -0.05151,-0.01094 -1.372658,0.08043 -2.759075,0.281164 -4.082698,0.655109 -0.631119,0.1778 -1.5247052,0.469194 -2.048933,1.004005 0.2885722,-0.396169 0.6992056,-0.764116 1.133475,-1.041047 -0.4808361,-0.228247 -0.8607778,-0.630414 -0.9549695,-1.222375 -0.1178277,-0.731661 0.023283,-1.4097 0.2603501,-2.073275 0.019403,-0.45967 0.1090083,-0.941917 0.2413,-1.418167 -0.2303639,-0.897114 -0.4335639,-2.18052 0.3037417,-2.672645 0.1019527,-0.06879 0.1605137,0.05645 0.083961,0.130881 -0.4713036,0.459669 -0.3746424,1.254831 -0.213423,1.975556 0.214129,-0.631825 0.474479,-1.224492 0.705548,-1.722614 -0.118533,0.568325 -0.250825,1.133475 -0.34925,1.705327 -0.2158924,0.559506 -0.3929869,1.116189 -0.4921174,1.712384 -0.1337028,0.795867 -0.2825751,2.1971 0.4307344,2.798586 0.294217,0.248709 0.650875,0.343959 1.010003,0.325261 0.230011,-0.06209 0.464255,-0.121355 0.703439,-0.179916 0.208844,-0.09631 0.403225,-0.226484 0.565855,-0.383117 0.48895,-0.471664 0.883356,-1.185686 1.157464,-1.911703 0.07726,-0.131233 0.155575,-0.260703 0.226131,-0.394406 0.169333,-0.905227 0.409928,-1.889125 0.289278,-2.811639 -0.138642,-1.056569 -0.667809,-1.8034 -1.244953,-2.642658 C 12.397891,10.450503 11.818983,9.8864114 11.130008,9.4673114 10.010997,8.7878613 9.4666605,9.3290225 8.997466,10.318211 8.2993187,11.788589 7.1316242,13.370798 6.7823742,14.96994 c -0.3309056,1.511652 0.030692,3.235677 0.1651,4.765322 0.1725083,1.948392 0.3817056,3.862564 1.3610167,5.604934 0.5602112,0.996597 1.3641918,1.701447 2.2150921,2.39783 0.0254,-0.0028 0.04904,7.06e-4 0.06809,0.01164 0.01729,0.02364 0.03316,0.04763 0.04833,0.07197 0.0014,0.0046 0.0021,0.0095 0.0035,0.01376 0.0042,0.0039 0.0088,0.0074 0.01376,0.01094 0.154163,0.234245 0.287161,0.486481 0.432152,0.730956 -0.02293,-0.0014 -0.04621,-0.006 -0.06773,-0.02258 -0.09102,-0.06773 -0.180622,-0.135114 -0.269169,-0.202142 0.03069,0.173214 0.05221,0.349603 0.0508,0.521759 1.468966,0.979664 3.379611,1.039636 5.162197,0.908755 1.208617,-0.0889 2.369609,-0.34043 3.510492,-0.752475 0.607836,-0.21978 1.087261,-0.519994 1.546225,-0.856897 0.02963,-0.346781 0.06879,-0.693208 0.12065,-1.038578 -1.228019,0.458259 -2.525536,0.813859 -3.79095,1.189214 1.40335,-0.496711 2.764719,-1.104547 4.017433,-1.910644"
       style="fill:#ffffff;fill-opacity:1;fill-rule:nonzero;stroke:none;stroke-width:0.0352778"
       id="path145" />
  </g>
</svg>
