<?xml version="1.0" encoding="UTF-8" standalone="no"?>
<!-- Created with Inkscape (http://www.inkscape.org/) -->

<svg
   width="19.086109mm"
   height="32.88065mm"
   viewBox="0 0 19.086109 32.88065"
   version="1.1"
   id="svg323"
   sodipodi:docname="scissors.svg"
   inkscape:version="1.2.2 (b0a8486541, 2022-12-01)"
   xmlns:inkscape="http://www.inkscape.org/namespaces/inkscape"
   xmlns:sodipodi="http://sodipodi.sourceforge.net/DTD/sodipodi-0.dtd"
   xmlns="http://www.w3.org/2000/svg"
   xmlns:svg="http://www.w3.org/2000/svg">
  <sodipodi:namedview
     id="namedview325"
     pagecolor="#505050"
     bordercolor="#ffffff"
     borderopacity="1"
     inkscape:showpageshadow="0"
     inkscape:pageopacity="0"
     inkscape:pagecheckerboard="1"
     inkscape:deskcolor="#505050"
     inkscape:document-units="mm"
     showgrid="false"
     inkscape:zoom="0.73762626"
     inkscape:cx="-3.3892503"
     inkscape:cy="65.751455"
     inkscape:window-width="1920"
     inkscape:window-height="1006"
     inkscape:window-x="0"
     inkscape:window-y="42"
     inkscape:window-maximized="1"
     inkscape:current-layer="layer1" />
  <defs
     id="defs320" />
  <g
     inkscape:label="Layer 1"
     inkscape:groupmode="layer"
     id="layer1"
     transform="translate(-3.7286592,2.4511949)">
    <path
       d="m 22.109797,16.642428 c -0.138288,1.720462 -0.976136,3.236313 -1.804458,4.707785 -0.272697,0.484646 -0.582083,0.939412 -0.910167,1.371988 -0.339019,0.524192 -0.758472,0.991623 -1.259416,1.402292 -1.215673,1.29039 -2.794706,2.339904 -4.525434,2.65243 -0.155928,0.04837 -0.317853,0.08957 -0.49777,0.115747 C 12.301163,27.009827 11.52858,26.83093 10.745766,26.633731 10.450491,26.55866 10.127347,26.467572 9.7964411,26.358952 9.5745439,26.280283 9.3554689,26.199814 9.1370994,26.118358 8.2971355,25.781419 7.4808076,25.314271 6.9812743,24.669499 c -0.075142,-0.155328 -0.1291167,-0.325367 -0.15875,-0.514032 0.0381,0.0088 0.07373,0.0211 0.1118305,0.02963 0.1612195,0.05292 0.3266723,0.100471 0.4931834,0.143192 -0.6702778,-0.515373 -1.335264,-1.032827 -1.8326807,-1.7399 -0.2472972,-0.351261 -0.4480278,-0.714375 -0.6180667,-1.087966 -0.00494,-0.0066 -0.00953,-0.01379 -0.013758,-0.02039 -0.7655279,-1.149421 -1.0040057,-2.663896 -0.709789,-3.973019 0.031045,-0.137266 0.083608,-0.271639 0.14605,-0.404601 0.1915584,-0.774312 0.5305779,-1.497259 0.7560029,-2.338246 0.4148667,-1.719792 0.37465,-3.659682 0.4339167,-5.2959711 C 5.7024547,6.3705266 4.8582575,3.2050161 5.2639519,0.12635952 5.3923631,-0.84695444 7.5944021,-3.2546629 8.4968077,-1.12071 8.7779716,-0.45572385 8.7829105,0.3539012 8.824891,1.0594215 8.911674,2.5175227 8.835827,3.987195 8.844294,5.446284 c 0.00741,1.3479993 0.0254,2.7265844 0.1086556,4.0748306 0.096661,0.2371725 0.2088444,0.4569883 0.3901722,0.5969704 0.070908,0.055 0.1418167,0.09977 0.2134306,0.139735 0.2398889,-0.0339 0.4698996,-0.160549 0.6706306,-0.3210626 0.709083,-0.9088262 1.080911,-2.2098355 1.513064,-3.2423808 0.620889,-1.4837482 1.232605,-2.9696835 1.825272,-4.4637681 0.544336,-1.37043588 0.973314,-2.68633235 2.514248,-3.3139241 1.153936,-0.4706055 1.833386,0.13229171 1.960033,1.21673067 0.117122,1.00192423 -0.608189,2.18126043 -0.973314,3.09350853 -0.545747,1.3631687 -1.064683,2.7347335 -1.630539,4.0915522 -0.412044,0.9887303 -0.926747,1.9769315 -1.0287,3.0427082 0,0.0041 0.0014,0.0063 0.0014,0.0095 0.09948,0.14291 0.228247,0.260738 0.372886,0.357752 0.284692,-0.284021 0.603603,-0.527791 0.956381,-0.689716 0.137936,-0.076623 0.277636,-0.1488015 0.427214,-0.2082093 0.722841,-0.2849739 1.372305,-0.2408767 2.118783,-0.070838 0.648406,0.1481314 0.992011,0.8068383 1.04775,1.4249053 0.156634,0.730214 -0.01376,1.487593 -0.258939,2.226345 0.01729,-0.0084 0.03598,-0.01446 0.04904,-0.0303 0.0088,-0.012 0.01658,-0.02646 0.0254,-0.0375 0.214842,-0.165347 0.445206,-0.295592 0.696737,-0.41589 0.454025,-0.218686 0.862541,-0.258515 1.280583,-0.183409 1.205089,0.505178 1.066095,2.900892 0.985308,3.898618 z m 0.394406,-3.455564 c -0.271639,-0.65652 -0.752475,-1.156335 -1.572331,-1.10811 -0.440619,0.02621 -0.991658,0.251636 -1.404408,0.526415 0.159808,-0.453355 0.245181,-0.958815 0.238478,-1.353644 -0.01235,-0.731308 -0.295628,-1.145434 -0.84067,-1.6132529 -0.516819,-0.4430537 -1.435805,-0.4201584 -2.06375,-0.3457576 -0.714375,0.084737 -1.368778,0.5182659 -1.883481,1.0005835 -0.02505,0.0053 -0.04904,0.0081 -0.07444,0.01365 -0.06844,0.01379 -0.133702,-0.01997 -0.133702,-0.09797 0,-0.01764 0.0035,-0.03503 0.0039,-0.05292 -0.0032,-0.01669 -0.0046,-0.03641 -3.53e-4,-0.05927 0.0018,-0.01171 0.0053,-0.02261 0.0074,-0.03461 0.02081,-0.2285995 0.08678,-0.4504615 0.177094,-0.6645976 0.02328,-0.2853973 0.179917,-0.5348464 0.336197,-0.7733595 -0.0074,0.00219 -0.01446,0.00356 -0.02117,0.00631 0.393347,-1.0343445 0.95885,-2.0615276 1.35643,-3.0193899 0.557389,-1.3401676 1.145117,-2.6938113 1.6129,-4.0635769 0.483306,-1.41467428 0.446617,-3.456905 -1.654175,-3.2032577 -2.274358,0.2748139 -2.930525,2.60628708 -3.57258,4.2697402 -0.568326,1.4717185 -1.165931,2.9325713 -1.761067,4.394412 -0.284695,0.69538 -0.581734,1.3843903 -0.910876,2.0616884 -0.05362,0.231387 -0.166158,0.4099631 -0.336197,0.5366103 C 9.963305,9.7219157 9.9206189,9.8361451 9.8765217,9.9512212 8.9229633,9.0043656 9.334655,5.7461451 9.3431216,4.7904701 9.3582911,3.1478308 9.4256716,1.5078374 9.2817383,-0.13187383 9.1032327,-2.173399 7.9588215,-3.1255462 6.1744714,-1.9197517 3.9653769,-0.42750163 4.9863158,3.4053939 5.109788,5.5704265 5.207508,7.27646 5.2187964,8.974062 5.154591,10.680766 5.086858,12.466809 5.184224,14.728891 4.4042326,16.4109 c -0.3340805,0.425133 -0.574675,0.904558 -0.6388806,1.490204 -0.1467555,1.348282 0.1502834,2.652184 0.8269112,3.848735 0.3623028,0.639551 0.9549695,1.437993 1.6640529,1.975556 -0.2716389,-0.05112 -0.5485695,-0.07084 -0.8205612,-0.106786 -0.3982861,0.174872 -0.9838973,0.258516 -1.2244917,0.642021 -0.061383,0.09881 -0.1100667,0.20133 -0.1524,0.306211 -0.1361723,0.639268 0.051858,1.372235 0.288925,1.938902 0.7358945,1.759585 3.4360558,2.770258 5.0800003,3.318863 1.8418525,0.614609 4.6062195,0.929605 6.4611255,0.112853 0.28575,-0.185913 0.540808,-0.412714 0.733072,-0.699911 0.611717,-0.916516 0.815622,-2.142031 -0.04339,-2.975328 -0.05644,-0.0074 -0.114652,-0.01446 -0.178505,-0.01722 -0.148167,-0.0054 -0.111831,-0.217029 -0.0064,-0.263208 0.745772,-0.330588 1.400175,-0.754874 1.999544,-1.24714 1.116895,-1.026477 2.029178,-2.366081 2.687814,-3.617348 0.494948,-0.93913 0.957792,-1.903624 1.274939,-2.919907 0.310798,-0.992752 0.450498,-2.111728 0.458611,-3.154186 0.0042,-0.556331 -0.06879,-1.268624 -0.310444,-1.856352"
       style="fill:#ffffff;fill-opacity:1;fill-rule:nonzero;stroke:none;stroke-width:0.0352778"
       id="path67" />
    <path
       d="m 18.149514,9.8037601 c -0.866775,-0.307975 -1.86937,-0.081844 -2.633486,0.3962049 0.177094,-0.02688 0.354894,-0.05087 0.532694,-0.06424 0.359481,0.160126 0.522111,0.608542 0.456142,1.010391 -0.155928,0.957051 -0.61207,1.794898 -1.261534,2.522361 -0.05256,0.03736 -0.104069,0.07373 -0.155222,0.112184 -0.420864,0.264583 -0.857956,0.525286 -1.108075,0.95317 -0.230717,0.14538 -0.465667,0.282222 -0.706614,0.395499 -0.08819,0.04053 -0.263525,0.09345 -0.4699,0.158327 -0.612069,0.894362 -0.177094,3.166181 1.342672,2.367492 0.90417,-0.47558 1.325034,-1.14928 2.009776,-1.854165 0.409575,-0.420159 0.866422,-0.816328 1.274938,-1.239661 0.170039,-0.240207 0.34925,-0.473781 0.511176,-0.71935 0.178505,-0.27051 0.367947,-0.668902 0.664986,-0.819785 0.04939,-0.02469 0.0896,0.02893 0.06597,0.0737 -0.09349,0.181363 -0.202494,0.358457 -0.313267,0.53414 0.200378,-0.174307 0.402167,-0.348227 0.600075,-0.525321 0.03563,-0.132292 0.07444,-0.265677 0.112184,-0.399344 0.03528,-0.983898 0.224014,-2.493822 -0.922514,-2.9015979"
       style="fill:#ffffff;fill-opacity:1;fill-rule:nonzero;stroke:none;stroke-width:0.0352778"
       id="path69" />
    <path
       d="M 8.8559355,6.6563119 C 8.8435883,7.0372061 8.8464105,7.41616 8.8799244,7.7883758 8.8689883,7.4107978 8.8615799,7.0330786 8.8559355,6.6563119"
       style="fill:#ffffff;fill-opacity:1;fill-rule:nonzero;stroke:none;stroke-width:0.0352778"
       id="path71" />
    <path
       d="m 17.69055,0.09602062 c -0.06138,-0.46284447 -0.246592,-0.7785806 -0.45332,-1.11054452 -0.292805,-0.1432278 -0.651933,-0.1785056 -1.023761,-0.1135944 -0.0448,0.015169 -0.08784,0.026105 -0.133702,0.044803 -1.540934,0.62759175 -1.969912,1.94348822 -2.514248,3.3139241 -0.592667,1.4940846 -1.204383,2.9800199 -1.825272,4.4637681 -0.437445,1.0456334 -0.812447,2.3678799 -1.538464,3.2783288 -0.04092,0.050871 -0.07867,0.093592 -0.11677,0.1361723 0.117828,0.0635 0.251531,0.101282 0.403931,0.104175 0.139347,0.0028 0.17145,0.10541 0.141111,0.208774 -0.427919,0.08887 -0.8597195,0.02466 -1.2869334,-0.303742 -0.00953,-0.007 -0.017286,-0.01736 -0.026105,-0.02575 C 8.564541,9.7444935 8.5719494,8.5697434 8.539141,7.8655636 8.459766,6.1567785 8.4040271,4.4673256 8.4879882,2.7556477 8.5176216,2.150281 8.628041,0.91266595 8.4763466,-0.12375995 8.4541216,-0.26134329 8.4251938,-0.39927941 8.3983827,-0.53721553 8.1902438,-1.4078711 7.7309271,-2.0217045 6.7646687,-1.7627656 c -0.00459,0.00141 -0.00741,0 -0.011642,7.056e-4 C 6.0061964,-1.3404906 5.3330964,-0.39857385 5.2639519,0.12635952 4.8582575,3.2050161 5.7024547,6.3705266 5.5892131,9.4681979 c -0.074436,2.0546841 0.010583,4.5876281 -0.8487834,6.5620901 0.055739,-0.05718 0.1157111,-0.112853 0.1742722,-0.168663 0.0381,-0.04191 0.074436,-0.08463 0.1143,-0.124848 0.013758,-0.01379 0.026458,-0.01972 0.039511,-0.02826 0.086783,-0.09204 0.2638778,-0.248744 0.3414889,-0.288573 0.3358445,-0.279717 0.6872112,-0.549275 1.0163529,-0.830403 0.0635,-0.05496 0.1262944,-0.110102 0.1894417,-0.164395 v -0.002 c 0.1964972,-0.137971 0.3845278,-0.28762 0.5485694,-0.463303 0.00917,-0.01019 0.014464,-0.0211 0.02152,-0.03238 0.542925,-0.481647 1.0720917,-0.976912 1.5659806,-1.501105 0.3623028,-0.385974 0.7683501,-0.880851 1.2678826,-1.121163 0.944739,-0.455436 1.816101,-0.247227 2.822223,-0.432858 0.493889,-0.09024 0.962378,-0.240171 1.429808,-0.393277 C 14.073166,10.151647 14.22415,9.6355684 14.33281,9.3042748 14.533541,8.6925101 14.785072,8.091412 15.051066,7.4962405 15.321647,6.7327941 15.633855,5.9867396 15.956294,5.2423079 16.393033,4.2357976 16.868578,3.2303808 17.227,2.1921558 17.435492,1.5885882 17.778039,0.754304 17.69055,0.09602062"
       style="fill:#ffffff;fill-opacity:1;fill-rule:nonzero;stroke:none;stroke-width:0.0352778"
       id="path73" />
    <path
       d="m 11.47778,16.140002 c 0.01446,0.06421 -0.0049,0.126612 -0.04127,0.181328 0.235303,0.233574 0.459317,0.472405 0.672395,0.719349 -0.09984,-0.561022 -0.03387,-1.17094 0.227188,-1.598824 -0.475191,0.172544 -0.927452,0.401849 -0.858308,0.698147"
       style="fill:#ffffff;fill-opacity:1;fill-rule:nonzero;stroke:none;stroke-width:0.0352778"
       id="path75" />
    <path
       d="m 20.868372,12.716258 c -0.331611,-0.02014 -0.663575,0.03708 -1.024466,0.210961 -0.251531,0.120298 -0.481895,0.250543 -0.696737,0.41589 -0.0088,0.01104 -0.01658,0.02551 -0.0254,0.0375 -0.02081,0.02466 -0.04833,0.0405 -0.07655,0.04727 -0.03034,0.02508 -0.06138,0.04837 -0.09102,0.07511 -0.06138,0.05648 -0.133703,0.140829 -0.212725,0.216606 -0.03528,0.055 -0.224719,0.243099 -0.279753,0.223661 -0.243416,0.307975 -0.534811,0.597641 -0.829028,0.886918 -0.73025,0.717797 -1.356077,1.563512 -2.078919,2.286283 -0.102659,0.123895 -0.201789,0.249837 -0.292806,0.383505 -0.216253,0.31503 -0.624769,0.885542 -0.455436,1.300339 0.217311,0.534811 0.897114,0.723582 1.419578,0.598593 0.241653,-0.05771 0.464961,-0.142487 0.677333,-0.24444 -0.0071,-0.0056 -0.01199,-0.01157 -0.0187,-0.01792 0.479425,-0.0798 1.008592,-0.571182 1.335264,-0.802569 0.581025,-0.411339 1.120422,-0.869668 1.719086,-1.231548 -0.42933,0.428555 -0.8509,0.895985 -1.296811,1.322917 0.987425,-0.210714 1.975556,-0.931439 2.562578,-1.688783 0.05362,-0.06946 0.138642,0.002 0.08961,0.07232 -0.354189,0.510152 -0.770467,0.920009 -1.307042,1.232958 -0.475545,0.276966 -1.114072,0.665304 -1.689453,0.643396 -0.380294,0.263208 -0.75812,0.528462 -1.113367,0.824901 -0.722136,0.355953 -1.786819,0.668902 -2.420055,0.04187 -0.494595,-0.489868 -0.460375,-1.053642 -0.202495,-1.601964 -0.210961,0.143333 -0.432153,0.273402 -0.670278,0.383222 -0.310091,0.143193 -0.586669,0.157656 -0.824089,0.08393 0.06103,0.114935 0.120298,0.23428 0.176389,0.357046 0.687564,1.502093 0.467078,2.853937 0.188736,4.417025 -0.03034,0.168275 -0.318558,0.175719 -0.283986,-0.01789 0.328084,-1.840794 0.05786,-3.679084 -1.080205,-5.260657 -0.308681,-0.429013 -0.703087,-0.783167 -1.071739,-1.153302 0.0642,-0.506553 0.224014,-0.985978 0.478366,-1.431078 1.129948,-0.450638 2.282825,-0.764963 3.159126,-1.619356 0.02222,-0.03485 0.04269,-0.07013 0.06668,-0.104704 0.01658,-0.02332 0.04092,-0.02621 0.05927,-0.01764 0.01729,-0.01806 0.03528,-0.03253 0.05186,-0.05115 0.516819,-0.573264 2.346677,-3.514796 -0.310092,-2.655464 -0.530578,0.171555 -1.089378,0.386397 -1.653117,0.4312 -0.6096,0.04974 -1.365603,-0.02621 -1.93675,0.119204 -1.3310307,0.338984 -2.2214419,1.673189 -3.1728836,2.535026 -0.803275,0.726757 -2.1745223,1.568062 -2.9481641,2.530898 -0.058561,0.10474 -0.111125,0.213466 -0.1559277,0.32632 -0.047272,0.129116 -0.091017,0.257845 -0.1273528,0.386538 -0.257175,0.975784 -0.1255889,2.130461 0.1389944,3.006478 0.2681112,0.891435 0.6713362,1.809362 1.2837584,2.533227 0.979664,0.965588 2.1861641,1.449988 3.7316836,1.273599 0.2021417,-0.023 0.098072,0.307163 -0.068792,0.326319 -0.3245555,0.03736 -0.6339417,0.0423 -0.9323917,0.02424 -0.3051528,0.11303 -0.7750528,0.02759 -0.6847417,0.07168 -0.2913945,-0.04907 -0.581025,-0.122802 -0.8618362,-0.207398 0.3390195,0.403896 0.7584723,0.785601 1.2269612,1.129171 0.4575528,0.266771 0.9521473,0.476921 1.4492112,0.651934 0.026811,-0.01019 0.055739,-0.01584 0.084667,-0.007 0.91687,0.277671 1.885597,0.546382 2.853267,0.497064 0.392642,-0.02014 0.836436,0.0032 1.243542,-0.07264 -0.383117,-0.04135 -0.775053,-0.125942 -1.177573,-0.272698 -0.06809,-0.02469 -0.01517,-0.125977 0.0441,-0.122096 1.77165,0.111054 3.307291,-0.418112 4.597047,-1.353256 0.793045,-0.676592 1.478139,-1.57233 2.004483,-2.321278 0.743303,-1.056957 1.400881,-2.160093 1.843264,-3.378129 0.712964,-1.964408 1.425576,-4.710007 -0.414161,-6.272143"
       style="fill:#ffffff;fill-opacity:1;fill-rule:nonzero;stroke:none;stroke-width:0.0352778"
       id="path77" />
  </g>
</svg>
